# xmcd
#
# Track frame offsets:
#	150
#	17485
#	33538
#	47329
#	68878
#	81643
#	94972
#	112375
#	126383
#	140084
#
# Disc length: 2069 seconds
#
# Revision: 1
# Processed by: cddbd v1.5.2PL0 Copyright (c) Steve Scherf et al.
# Submitted via: audiograbber 1.83.01
#
DISCID=9508130a
DTITLE=Billy Currington - Enjoy Yourself
DYEAR=2010
DGENRE=Country
TTITLE0=All Day Long
TTITLE1=Love Done Gone
TTITLE2=Pretty Good At Drinkin' Beer
TTITLE3=Until You
TTITLE4=Like My Dog
TTITLE5=Perfect Day
TTITLE6=Let Me Down Easy
TTITLE7=Bad Day Of Fishin'
TTITLE8=Enjoy Yourself
TTITLE9=Lil' Ol' Lonesome Dixie Town
EXTD=
EXTT0=
EXTT1=
EXTT2=
EXTT3=
EXTT4=
EXTT5=
EXTT6=
EXTT7=
EXTT8=
EXTT9=
PLAYORDER=
